<svg width="477" height="642" viewBox="0 0 477 642" fill="none" xmlns="http://www.w3.org/2000/svg">
<g clip-path="url(#clip0)">
<path d="M470 356H29V501H470V356Z" fill="url(#paint0_radial)" fill-opacity="0.5"/>
<path d="M111 610C144.689 610 172 582.689 172 549C172 515.311 144.689 488 111 488C77.3106 488 50 515.311 50 549C50 582.689 77.3106 610 111 610Z" stroke="#FF6B60" stroke-width="2"/>
<path d="M250 641C283.689 641 311 613.689 311 580C311 546.311 283.689 519 250 519C216.311 519 189 546.311 189 580C189 613.689 216.311 641 250 641Z" stroke="#FFB916" stroke-width="2"/>
<path d="M389 610C422.689 610 450 582.689 450 549C450 515.311 422.689 488 389 488C355.311 488 328 515.311 328 549C328 582.689 355.311 610 389 610Z" stroke="#5CEBDF" stroke-width="2"/>
<path d="M349.461 502.842L249.461 438.842" stroke="url(#paint1_linear)" stroke-width="2"/>
<path d="M149.465 501.155L247.465 439.155" stroke="url(#paint2_linear)" stroke-width="2"/>
<path d="M249 519V440" stroke="url(#paint3_linear)" stroke-width="2"/>
<path d="M0 311C2.20914 311 4 309.209 4 307C4 304.791 2.20914 303 0 303C-2.20914 303 -4 304.791 -4 307C-4 309.209 -2.20914 311 0 311Z" fill="#5CEBDF"/>
<path d="M0 311C2.20914 311 4 309.209 4 307C4 304.791 2.20914 303 0 303C-2.20914 303 -4 304.791 -4 307C-4 309.209 -2.20914 311 0 311Z" fill="#DEA939"/>
<path d="M0 311C2.20914 311 4 309.209 4 307C4 304.791 2.20914 303 0 303C-2.20914 303 -4 304.791 -4 307C-4 309.209 -2.20914 311 0 311Z" fill="#F26A6A"/>
<path d="M389 554.662C392.157 554.662 394.715 552.103 394.715 548.947C394.715 545.791 392.157 543.232 389 543.232C385.844 543.232 383.285 545.791 383.285 548.947C383.285 552.103 385.844 554.662 389 554.662Z" fill="#00D8FF"/>
<path fill-rule="evenodd" clip-rule="evenodd" d="M389 537.327C396.674 537.327 403.802 538.428 409.176 540.279C415.652 542.508 419.634 545.887 419.634 548.947C419.634 552.136 415.414 555.726 408.46 558.03C403.203 559.772 396.284 560.681 389 560.681C381.532 560.681 374.461 559.827 369.144 558.011C362.418 555.711 358.366 552.075 358.366 548.947C358.366 545.912 362.168 542.559 368.552 540.333C373.947 538.452 381.251 537.327 388.999 537.327H389Z" stroke="#00D8FF" stroke-width="2.73408"/>
<path fill-rule="evenodd" clip-rule="evenodd" d="M378.885 543.171C382.718 536.524 387.233 530.899 391.521 527.167C396.687 522.671 401.604 520.91 404.254 522.439C407.017 524.032 408.018 529.481 406.54 536.656C405.424 542.08 402.754 548.528 399.115 554.837C395.385 561.307 391.113 567.006 386.883 570.703C381.531 575.382 376.357 577.075 373.647 575.512C371.018 573.997 370.012 569.028 371.274 562.385C372.34 556.772 375.014 549.883 378.884 543.171L378.885 543.171Z" stroke="#00D8FF" stroke-width="2.73408"/>
<path fill-rule="evenodd" clip-rule="evenodd" d="M378.895 554.854C375.05 548.215 372.433 541.493 371.34 535.915C370.025 529.193 370.955 524.054 373.603 522.521C376.363 520.924 381.584 522.777 387.062 527.641C391.204 531.318 395.456 536.85 399.106 543.154C402.847 549.617 405.652 556.165 406.743 561.675C408.123 568.649 407.006 573.977 404.299 575.544C401.672 577.064 396.865 575.454 391.74 571.044C387.41 567.318 382.777 561.56 378.895 554.854V554.854Z" stroke="#00D8FF" stroke-width="2.73408"/>
<path fill-rule="evenodd" clip-rule="evenodd" d="M124.838 533C124.765 533.001 124.69 533.021 124.624 533.064C124.492 533.15 124.41 533.309 124.41 533.479V545.691C124.41 545.811 124.36 545.918 124.267 545.979C124.173 546.039 124.06 546.039 123.966 545.979L122.179 544.829C121.913 544.658 121.588 544.658 121.322 544.829L114.188 549.427C113.921 549.599 113.759 549.929 113.759 550.273V559.468C113.759 559.812 113.922 560.126 114.188 560.298L121.322 564.896C121.588 565.068 121.913 565.068 122.179 564.896L129.313 560.298C129.58 560.126 129.742 559.812 129.742 559.468V536.544C129.742 536.195 129.572 535.868 129.299 535.698L125.053 533.048C124.986 533.006 124.912 532.999 124.838 533V533ZM78.9485 544.478C78.8125 544.484 78.6847 544.511 78.5625 544.59L71.4289 549.187C71.1631 549.359 71 549.671 71 550.017L71.0143 562.357C71.0143 562.529 71.0936 562.688 71.2287 562.773C71.3612 562.861 71.5256 562.861 71.6576 562.773L75.8892 560.059C76.1572 559.881 76.3324 559.572 76.3324 559.229V553.466C76.3324 553.122 76.4943 552.806 76.7612 552.636L78.5625 551.47C78.697 551.383 78.8413 551.342 78.9914 551.342C79.1384 551.342 79.2895 551.383 79.4203 551.47L81.2216 552.636C81.4885 552.806 81.6504 553.122 81.6504 553.466V559.229C81.6504 559.572 81.8273 559.883 82.0936 560.059L86.3252 562.773C86.4581 562.861 86.6223 562.861 86.7541 562.773C86.8854 562.688 86.9685 562.529 86.9685 562.357L86.9828 550.017C86.9828 549.671 86.8215 549.359 86.5539 549.187L79.4203 544.59C79.2996 544.511 79.1712 544.484 79.0343 544.478H78.9485H78.9485ZM143.051 544.59C142.902 544.59 142.756 544.632 142.623 544.717L135.489 549.315C135.222 549.487 135.06 549.801 135.06 550.145V559.34C135.06 559.686 135.234 560 135.503 560.17L142.58 564.672C142.841 564.839 143.16 564.851 143.423 564.688L147.712 562.022C147.848 561.938 147.94 561.78 147.941 561.607C147.942 561.434 147.861 561.278 147.726 561.192L140.55 556.594C140.415 556.509 140.321 556.335 140.321 556.163V553.29C140.321 553.118 140.416 552.961 140.55 552.875L142.78 551.438C142.913 551.352 143.075 551.352 143.209 551.438L145.439 552.875C145.572 552.961 145.653 553.118 145.653 553.29V555.557C145.653 555.729 145.735 555.886 145.868 555.972C146.002 556.058 146.163 556.058 146.297 555.972L150.571 553.194C150.836 553.022 151 552.707 151 552.364V550.145C151 549.802 150.837 549.487 150.571 549.315L143.48 544.717C143.347 544.631 143.201 544.59 143.051 544.59V544.59ZM121.722 551.454C121.759 551.454 121.803 551.464 121.836 551.486L124.281 553.066C124.347 553.109 124.395 553.188 124.395 553.274V556.435C124.395 556.52 124.348 556.6 124.281 556.642L121.836 558.223C121.77 558.265 121.688 558.265 121.622 558.223L119.177 556.642C119.111 556.599 119.063 556.52 119.063 556.435V553.274C119.063 553.188 119.111 553.109 119.177 553.066L121.622 551.486C121.655 551.465 121.685 551.454 121.722 551.454V551.454Z" fill="#404137"/>
<path fill-rule="evenodd" clip-rule="evenodd" d="M100.378 544.542C100.229 544.542 100.082 544.584 99.9493 544.67L92.8156 549.251C92.5489 549.423 92.3867 549.754 92.3867 550.097V559.292C92.3867 559.636 92.5491 559.951 92.8156 560.123L99.9493 564.72C100.216 564.892 100.54 564.892 100.807 564.72L107.941 560.123C108.207 559.951 108.37 559.636 108.37 559.292V550.097C108.37 549.753 108.207 549.423 107.941 549.251L100.807 544.67C100.674 544.584 100.527 544.542 100.378 544.542ZM143.037 552.747C143.009 552.747 142.977 552.747 142.951 552.763L141.579 553.657C141.528 553.69 141.493 553.751 141.493 553.817V555.573C141.493 555.639 141.528 555.7 141.579 555.732L142.951 556.61C143.003 556.644 143.058 556.644 143.109 556.61L144.481 555.732C144.532 555.7 144.567 555.639 144.567 555.573V553.817C144.567 553.751 144.532 553.69 144.481 553.657L143.109 552.763C143.083 552.746 143.066 552.747 143.037 552.747Z" fill="#83CD29"/>
<path d="M281 549H218V612H281V549Z" fill="#F7DF1E"/>
<path d="M260.32 598.219C261.589 600.291 263.24 601.814 266.16 601.814C268.613 601.814 270.18 600.588 270.18 598.894C270.18 596.864 268.57 596.145 265.87 594.964L264.39 594.329C260.118 592.509 257.28 590.229 257.28 585.409C257.28 580.969 260.663 577.589 265.95 577.589C269.714 577.589 272.42 578.899 274.37 582.329L269.76 585.289C268.745 583.469 267.65 582.752 265.95 582.752C264.216 582.752 263.117 583.852 263.117 585.289C263.117 587.065 264.217 587.784 266.757 588.884L268.237 589.518C273.267 591.675 276.107 593.874 276.107 598.818C276.107 604.148 271.92 607.068 266.297 607.068C260.799 607.068 257.247 604.448 255.509 601.014L260.32 598.219ZM239.407 598.732C240.337 600.382 241.183 601.777 243.217 601.777C245.162 601.777 246.389 601.016 246.389 598.057V577.927H252.309V598.137C252.309 604.267 248.715 607.057 243.469 607.057C238.729 607.057 235.984 604.604 234.588 601.65L239.407 598.732Z" fill="black"/>
<circle cx="249" cy="519" r="4" fill="#FFB916"/>
<circle cx="349" cy="503" r="4" fill="#5CEBDF"/>
<circle cx="149" cy="501" r="4" fill="#FF6B60"/>
</g>
<path opacity="0.4" d="M249 428.718L472 0H26L249 428.718L472 0H26L249 428.718Z" fill="url(#paint4_linear)"/>
<path d="M279.372 378.944H218.628V440H279.372V378.944Z" fill="#3F3D56"/>
<path d="M252.301 244.223C188.954 244.223 137.417 192.421 137.417 128.748C137.417 65.075 188.954 13.273 252.301 13.273C315.649 13.273 367.185 65.075 367.185 128.748C367.185 192.421 315.649 244.223 252.301 244.223ZM252.301 16.5913C190.774 16.5913 140.719 66.9046 140.719 128.748C140.719 190.592 190.774 240.905 252.301 240.905C313.828 240.905 363.884 190.592 363.884 128.748C363.884 66.9046 313.828 16.5913 252.301 16.5913V16.5913Z" fill="#3F3D56"/>
<path d="M252.301 216.35C204.245 216.35 165.148 177.052 165.148 128.748C165.148 80.4442 204.245 41.1463 252.301 41.1463C300.358 41.1463 339.454 80.4442 339.454 128.748C339.454 177.052 300.358 216.35 252.301 216.35ZM252.301 43.1373C235.456 43.1373 218.989 48.1582 204.982 57.5653C190.975 66.9723 180.059 80.3429 173.612 95.9863C167.166 111.63 165.479 128.843 168.765 145.45C172.052 162.057 180.164 177.311 192.075 189.284C203.987 201.257 219.163 209.411 235.685 212.714C252.207 216.017 269.332 214.322 284.895 207.842C300.459 201.363 313.761 190.39 323.12 176.311C332.478 162.232 337.474 145.68 337.474 128.748C337.448 106.051 328.466 84.29 312.499 68.2404C296.532 52.1908 274.883 43.1629 252.301 43.1373Z" fill="#3F3D56"/>
<path d="M252.301 156.621C246.817 156.621 241.455 154.987 236.895 151.924C232.335 148.861 228.78 144.508 226.682 139.415C224.583 134.322 224.034 128.717 225.104 123.31C226.174 117.903 228.815 112.937 232.693 109.039C236.571 105.141 241.512 102.486 246.891 101.41C252.271 100.335 257.846 100.887 262.913 102.997C267.98 105.106 272.311 108.679 275.358 113.263C278.406 117.846 280.032 123.235 280.032 128.748C280.024 136.138 277.099 143.223 271.901 148.448C266.702 153.674 259.653 156.613 252.301 156.621ZM252.301 102.202C247.078 102.202 241.972 103.759 237.629 106.676C233.286 109.593 229.9 113.739 227.902 118.589C225.903 123.44 225.38 128.778 226.399 133.927C227.418 139.076 229.933 143.806 233.627 147.519C237.32 151.232 242.026 153.76 247.149 154.784C252.272 155.808 257.582 155.283 262.408 153.273C267.234 151.264 271.358 147.862 274.26 143.496C277.162 139.131 278.711 133.998 278.711 128.748C278.703 121.71 275.918 114.963 270.967 109.986C266.016 105.009 259.303 102.21 252.301 102.202V102.202Z" fill="#3F3D56"/>
<path d="M245.699 95.5656C242.144 95.5656 238.624 96.2694 235.339 97.6368C232.055 99.0042 229.071 101.008 226.557 103.535C224.043 106.062 222.049 109.061 220.689 112.363C219.329 115.664 218.628 119.202 218.628 122.775H245.699V95.5656Z" fill="#6C63FF"/>
<path opacity="0.3" d="M218.628 134.721C218.628 141.937 221.48 148.858 226.557 153.961C231.634 159.064 238.519 161.931 245.699 161.931V134.721H218.628Z" fill="#6C63FF"/>
<path opacity="0.3" d="M256.923 95.5656V122.775H283.993C283.993 119.202 283.293 115.664 281.933 112.363C280.572 109.061 278.578 106.062 276.065 103.535C273.551 101.008 270.567 99.0042 267.282 97.6368C263.998 96.2694 260.478 95.5656 256.923 95.5656V95.5656Z" fill="#6C63FF"/>
<path d="M256.923 159.276C264.103 159.276 270.988 156.409 276.065 151.306C281.141 146.204 283.993 139.283 283.993 132.066H256.923V159.276Z" fill="#6C63FF"/>
<path d="M279.64 96.1782L278.443 95.6167L292.486 65.3695H383.361V66.6968H293.327L279.64 96.1782Z" fill="#3F3D56"/>
<path d="M405.48 36.5008H353.98V40.4827H405.48V36.5008Z" fill="#3F3D56"/>
<path d="M405.48 45.1282H353.98V49.1101H405.48V45.1282Z" fill="#3F3D56"/>
<path d="M405.48 53.7556H353.98V57.7375H405.48V53.7556Z" fill="#3F3D56"/>
<path d="M278.051 255.505H226.551V259.487H278.051V255.505Z" fill="#3F3D56"/>
<path d="M278.051 264.133H226.551V268.115H278.051V264.133Z" fill="#3F3D56"/>
<path d="M278.051 272.76H226.551V276.742H278.051V272.76Z" fill="#3F3D56"/>
<path d="M299.839 284.042H298.519V180.703L283.432 156.308L284.555 155.607L299.839 180.323V284.042Z" fill="#3F3D56"/>
<path d="M206.084 284.042H204.763V180.323L220.049 155.607L221.17 156.308L206.084 180.703V284.042Z" fill="#3F3D56"/>
<defs>
<radialGradient id="paint0_radial" cx="0" cy="0" r="1" gradientUnits="userSpaceOnUse" gradientTransform="translate(249.5 428.5) rotate(90) scale(72.5 220.5)">
<stop stop-color="#2250F4"/>
<stop offset="1" stop-color="#2250F4" stop-opacity="0"/>
</radialGradient>
<linearGradient id="paint1_linear" x1="250" y1="438" x2="350" y2="502" gradientUnits="userSpaceOnUse">
<stop stop-color="#2250F4"/>
<stop offset="1" stop-color="#84F3DF"/>
</linearGradient>
<linearGradient id="paint2_linear" x1="248" y1="440" x2="150" y2="502" gradientUnits="userSpaceOnUse">
<stop stop-color="#2250F4"/>
<stop offset="1" stop-color="#FF6B60"/>
</linearGradient>
<linearGradient id="paint3_linear" x1="249" y1="440" x2="249" y2="519" gradientUnits="userSpaceOnUse">
<stop stop-color="#2250F4"/>
<stop offset="1" stop-color="#FFB916"/>
</linearGradient>
<linearGradient id="paint4_linear" x1="249" y1="428.718" x2="249" y2="0" gradientUnits="userSpaceOnUse">
<stop stop-color="#E4E4E4"/>
<stop offset="0.4735" stop-color="#F0F0F0" stop-opacity="0.7"/>
</linearGradient>
<clipPath id="clip0">
<rect width="477" height="335" fill="white" transform="translate(0 307)"/>
</clipPath>
</defs>
</svg>
