<svg width="92" height="92" viewBox="0 0 92 92" fill="none" xmlns="http://www.w3.org/2000/svg">
<g clip-path="url(#clip0)">
<path fill-rule="evenodd" clip-rule="evenodd" d="M53.0786 44.604V53.0892V58.7461L57.3212 62.9887L60.1497 74.3024L64.3923 72.8882V53.0892L53.0786 44.604ZM38.9365 44.604L27.6228 53.0892V72.8882L31.8654 74.3024L34.6938 62.9887L38.9365 58.7461V53.0892V44.604Z" fill="#CCCCCC"/>
<path d="M38.9364 70.0598C40.2156 76.9095 40.9595 86.1882 43.1791 88.4446C44.8634 90.1586 47.1368 90.1735 48.8359 88.4446C51.0916 86.1507 51.6502 77.1012 53.0786 70.0598L38.9364 70.0598Z" fill="#FFCC66"/>
<path d="M41.7649 64.4029C43.044 71.2527 42.3553 81.9639 44.5933 84.2019C46.0719 85.6805 46.1497 85.474 47.4217 84.2019C49.6965 81.9272 48.8218 71.4443 50.2502 64.4029H41.7649Z" fill="#ED7161"/>
<path d="M43.1791 3.59177C39.0093 8.31171 31.8647 16.5141 31.8654 34.7045C31.8654 48.0843 35.7241 63.681 39.4279 72.8875H52.6748C56.3695 63.7439 60.149 48.1968 60.1497 34.7045C60.1497 16.6322 52.964 8.41707 48.836 3.59177C46.9932 1.43792 44.9129 1.62884 43.1791 3.59177Z" fill="#387AA7"/>
<path d="M43.1791 3.59176C39.0093 8.3117 31.8647 16.5141 31.8654 34.7045C31.8647 45.6271 34.4414 58.0185 37.3999 67.2194L54.7028 67.2194C57.6331 58.0637 60.1497 45.7042 60.1497 34.7045C60.1497 16.6322 52.9641 8.41706 48.836 3.59176C46.9932 1.43792 44.9129 1.62884 43.1791 3.59176Z" fill="#48A0DC"/>
<path d="M51.6644 29.0476C54.7886 25.9234 54.7886 20.8581 51.6644 17.7339C48.5402 14.6097 43.4749 14.6097 40.3507 17.7339C37.2265 20.8581 37.2265 25.9234 40.3507 29.0476C43.4749 32.1718 48.5402 32.1718 51.6644 29.0476Z" fill="#4D4D4D"/>
<path d="M48.836 26.2192C50.3981 24.6571 50.3981 22.1244 48.836 20.5623C47.2739 19.0002 44.7412 19.0002 43.1791 20.5623C41.617 22.1244 41.617 24.6571 43.1791 26.2192C44.7412 27.7813 47.2739 27.7813 48.836 26.2192Z" fill="white"/>
</g>
<defs>
<clipPath id="clip0">
<rect width="64.02" height="64.013" fill="white" transform="translate(0.7435 46.009) rotate(-45)"/>
</clipPath>
</defs>
</svg>
