<svg width="1440" height="2048" viewBox="0 0 1440 2048" fill="none" xmlns="http://www.w3.org/2000/svg">
<path d="M814.801 0C814.801 55.4255 820.373 113.68 810.729 168.408C805.053 200.619 752.374 231.669 726.13 250.558C680.218 283.601 623.387 300.718 577.29 332.913C551.326 351.046 521.045 388.583 513.502 418.144C505.201 450.668 494.736 493.845 503.549 526.992C507.55 542.043 514.006 556.297 519.383 570.943C526.847 591.274 540.472 595.844 559.194 607.089C577.585 618.135 598.919 627.376 620.268 632.555C656.514 641.348 698.762 651.372 736.083 653.709C779.299 656.415 822.273 653.514 865.47 658.022C902.271 661.862 939.496 664.191 976.534 665.21C1028.1 666.629 1079.89 665.415 1131.48 665.415C1184.94 665.415 1245.66 677.412 1282.36 715.116C1321.91 755.755 1335.19 806.375 1335.97 860.111C1337.19 944.375 1314.97 1010.36 1252.5 1073.5C1179.44 1147.34 1082.01 1157.99 978.57 1154.21C885.724 1150.81 792.065 1146.73 699.665 1137.37C675.132 1134.88 669.345 1132.03 650.579 1121.35C606.427 1096.21 559.833 1075.05 515.764 1049.88C446.239 1010.16 368.736 982.929 285.039 987.854C185.645 993.703 126.699 1130.55 126.699 1208.63C126.699 1260.63 130.469 1302.46 161.534 1347.26C175.313 1367.13 183.826 1387.75 199.988 1406.41C217.805 1426.98 236.741 1446.32 256.764 1465.15C285.665 1492.32 342.511 1511.81 381.853 1519.78C410.785 1525.63 441.974 1523.06 471.428 1523.06C508.394 1523.06 545.546 1524.05 582.493 1522.86C612.653 1521.88 633.205 1508.62 658.496 1495.13C699.551 1473.24 743.671 1458.4 785.395 1437.63C821.007 1419.89 859.507 1400.35 900.304 1395.32C937.884 1390.68 976.502 1389.29 1014.31 1386.08C1060.93 1382.11 1139.43 1361.85 1180.57 1391.42C1223.9 1422.56 1214.91 1514.04 1207.94 1558.39C1200.15 1607.88 1178.77 1629.53 1135.78 1656.56C1090.41 1685.07 1041.35 1702.75 1000.29 1736.65C970.186 1761.49 942.407 1792.87 923.377 1825.78C916.222 1838.16 909.352 1857.07 909.352 1871.17C909.352 1892.87 923.985 1905.34 931.068 1923.95C938.61 1943.78 945.092 1973.37 945.092 1994.4C945.092 2014.12 943.696 2030.81 932.877 2048" stroke="black" stroke-width="8" stroke-linecap="round"/>
<path d="M915.864 193.784C915.864 219.254 901.76 242.356 878.873 259.108C855.986 275.86 824.344 286.236 789.371 286.236C754.397 286.236 722.755 275.86 699.868 259.108C676.981 242.356 662.878 219.254 662.878 193.784C662.878 168.314 676.981 145.213 699.868 128.461C722.755 111.709 754.397 101.332 789.371 101.332C824.344 101.332 855.986 111.709 878.873 128.461C901.76 145.213 915.864 168.314 915.864 193.784Z" fill="white" stroke="black"/>
<path d="M750.057 202.07H748.416V195.683H741.17V202.07H739.53V188.066H741.17V194.209H748.416V188.066H750.057V202.07ZM762.01 189.551H757.967V202.07H756.327V189.551H752.293V188.066H762.01V189.551ZM778.495 202.07H776.864V192.676C776.864 191.933 776.909 191.025 777 189.951H776.961C776.805 190.582 776.665 191.035 776.541 191.308L771.756 202.07H770.955L766.18 191.386C766.043 191.074 765.903 190.595 765.76 189.951H765.721C765.773 190.511 765.799 191.426 765.799 192.695V202.07H764.217V188.066H766.385L770.682 197.832C771.014 198.58 771.229 199.14 771.327 199.511H771.385C771.665 198.743 771.89 198.17 772.059 197.793L776.444 188.066H778.495V202.07ZM789.452 202.07H782.186V188.066H783.827V200.586H789.452V202.07ZM803.192 188.066L796.473 204.394H794.979L801.678 188.066H803.192ZM819.901 201.484C818.866 202.031 817.577 202.304 816.034 202.304C814.041 202.304 812.446 201.663 811.248 200.381C810.051 199.098 809.452 197.415 809.452 195.332C809.452 193.092 810.125 191.282 811.473 189.902C812.821 188.522 814.53 187.832 816.6 187.832C817.928 187.832 819.028 188.024 819.901 188.408V190.156C818.898 189.596 817.791 189.316 816.58 189.316C814.972 189.316 813.667 189.853 812.664 190.927C811.668 192.002 811.17 193.437 811.17 195.234C811.17 196.94 811.636 198.301 812.567 199.316C813.504 200.325 814.732 200.83 816.248 200.83C817.655 200.83 818.872 200.517 819.901 199.892V201.484ZM822.098 201.504V199.57C822.319 199.765 822.583 199.941 822.889 200.097C823.202 200.254 823.527 200.387 823.866 200.498C824.211 200.602 824.556 200.683 824.901 200.742C825.246 200.801 825.565 200.83 825.858 200.83C826.867 200.83 827.619 200.644 828.114 200.273C828.615 199.896 828.866 199.355 828.866 198.652C828.866 198.275 828.781 197.946 828.612 197.666C828.449 197.386 828.221 197.132 827.928 196.904C827.635 196.67 827.287 196.448 826.883 196.24C826.486 196.025 826.056 195.801 825.594 195.566C825.106 195.319 824.65 195.068 824.227 194.814C823.804 194.56 823.436 194.28 823.123 193.974C822.811 193.668 822.564 193.323 822.381 192.939C822.205 192.549 822.118 192.093 822.118 191.572C822.118 190.934 822.258 190.381 822.537 189.912C822.817 189.437 823.185 189.046 823.641 188.74C824.097 188.434 824.614 188.206 825.194 188.056C825.78 187.907 826.375 187.832 826.981 187.832C828.361 187.832 829.367 187.998 829.998 188.33V190.176C829.172 189.603 828.11 189.316 826.815 189.316C826.457 189.316 826.099 189.355 825.741 189.433C825.383 189.505 825.064 189.625 824.784 189.795C824.504 189.964 824.276 190.182 824.1 190.449C823.924 190.716 823.836 191.041 823.836 191.426C823.836 191.784 823.901 192.093 824.032 192.353C824.168 192.614 824.367 192.851 824.627 193.066C824.888 193.281 825.204 193.489 825.575 193.691C825.952 193.893 826.385 194.114 826.873 194.355C827.375 194.603 827.85 194.863 828.299 195.136C828.748 195.41 829.142 195.713 829.481 196.045C829.819 196.377 830.086 196.745 830.282 197.148C830.483 197.552 830.584 198.014 830.584 198.535C830.584 199.225 830.448 199.811 830.174 200.293C829.907 200.768 829.543 201.155 829.08 201.455C828.625 201.754 828.097 201.969 827.498 202.099C826.899 202.236 826.268 202.304 825.604 202.304C825.383 202.304 825.109 202.285 824.784 202.246C824.458 202.213 824.126 202.161 823.787 202.09C823.449 202.025 823.127 201.943 822.821 201.845C822.521 201.741 822.28 201.627 822.098 201.504ZM832.723 201.504V199.57C832.944 199.765 833.208 199.941 833.514 200.097C833.827 200.254 834.152 200.387 834.491 200.498C834.836 200.602 835.181 200.683 835.526 200.742C835.871 200.801 836.19 200.83 836.483 200.83C837.492 200.83 838.244 200.644 838.739 200.273C839.24 199.896 839.491 199.355 839.491 198.652C839.491 198.275 839.406 197.946 839.237 197.666C839.074 197.386 838.846 197.132 838.553 196.904C838.26 196.67 837.912 196.448 837.508 196.24C837.111 196.025 836.681 195.801 836.219 195.566C835.731 195.319 835.275 195.068 834.852 194.814C834.429 194.56 834.061 194.28 833.748 193.974C833.436 193.668 833.189 193.323 833.006 192.939C832.83 192.549 832.743 192.093 832.743 191.572C832.743 190.934 832.883 190.381 833.162 189.912C833.442 189.437 833.81 189.046 834.266 188.74C834.722 188.434 835.239 188.206 835.819 188.056C836.405 187.907 837 187.832 837.606 187.832C838.986 187.832 839.992 187.998 840.623 188.33V190.176C839.797 189.603 838.735 189.316 837.44 189.316C837.082 189.316 836.724 189.355 836.366 189.433C836.008 189.505 835.689 189.625 835.409 189.795C835.129 189.964 834.901 190.182 834.725 190.449C834.549 190.716 834.461 191.041 834.461 191.426C834.461 191.784 834.526 192.093 834.657 192.353C834.793 192.614 834.992 192.851 835.252 193.066C835.513 193.281 835.829 193.489 836.2 193.691C836.577 193.893 837.01 194.114 837.498 194.355C838 194.603 838.475 194.863 838.924 195.136C839.373 195.41 839.767 195.713 840.106 196.045C840.444 196.377 840.711 196.745 840.907 197.148C841.108 197.552 841.209 198.014 841.209 198.535C841.209 199.225 841.073 199.811 840.799 200.293C840.532 200.768 840.168 201.155 839.705 201.455C839.25 201.754 838.722 201.969 838.123 202.099C837.524 202.236 836.893 202.304 836.229 202.304C836.008 202.304 835.734 202.285 835.409 202.246C835.083 202.213 834.751 202.161 834.412 202.09C834.074 202.025 833.752 201.943 833.446 201.845C833.146 201.741 832.905 201.627 832.723 201.504Z" fill="black"/>
<path d="M640.619 475.18C640.619 500.65 626.515 523.752 603.628 540.504C580.741 557.256 549.099 567.632 514.126 567.632C479.153 567.632 447.51 557.256 424.624 540.504C401.736 523.752 387.633 500.65 387.633 475.18C387.633 449.71 401.736 426.609 424.624 409.857C447.51 393.105 479.153 382.728 514.126 382.728C549.099 382.728 580.741 393.105 603.628 409.857C626.515 426.609 640.619 449.71 640.619 475.18Z" fill="white" stroke="black"/>
<path d="M477.527 478.446C477.527 480.107 477.176 481.399 476.472 482.323C475.769 483.241 474.829 483.7 473.65 483.7C473.103 483.7 472.654 483.622 472.303 483.466V481.845C472.654 482.099 473.11 482.226 473.67 482.226C475.148 482.226 475.886 480.973 475.886 478.466V469.462H477.527V478.446ZM488.035 483.466H486.433V481.904H486.394C485.698 483.101 484.672 483.7 483.318 483.7C482.322 483.7 481.541 483.437 480.974 482.909C480.414 482.382 480.135 481.682 480.135 480.81C480.135 478.941 481.235 477.854 483.435 477.548L486.433 477.128C486.433 475.429 485.747 474.579 484.373 474.579C483.168 474.579 482.081 474.989 481.111 475.81V474.169C482.094 473.544 483.227 473.232 484.51 473.232C486.86 473.232 488.035 474.475 488.035 476.962V483.466ZM486.433 478.407L484.021 478.739C483.279 478.844 482.719 479.029 482.342 479.296C481.964 479.556 481.775 480.022 481.775 480.693C481.775 481.181 481.948 481.581 482.293 481.894C482.644 482.2 483.11 482.353 483.689 482.353C484.483 482.353 485.138 482.076 485.652 481.523C486.173 480.963 486.433 480.256 486.433 479.404V478.407ZM498.914 473.466L494.929 483.466H493.357L489.568 473.466H491.326L493.865 480.732C494.054 481.265 494.171 481.731 494.217 482.128H494.256C494.321 481.627 494.425 481.174 494.568 480.771L497.224 473.466H498.914ZM507.801 483.466H506.199V481.904H506.16C505.463 483.101 504.438 483.7 503.084 483.7C502.088 483.7 501.306 483.437 500.74 482.909C500.18 482.382 499.9 481.682 499.9 480.81C499.9 478.941 501 477.854 503.201 477.548L506.199 477.128C506.199 475.429 505.512 474.579 504.138 474.579C502.934 474.579 501.847 474.989 500.877 475.81V474.169C501.86 473.544 502.993 473.232 504.275 473.232C506.625 473.232 507.801 474.475 507.801 476.962V483.466ZM506.199 478.407L503.787 478.739C503.045 478.844 502.485 479.029 502.107 479.296C501.73 479.556 501.541 480.022 501.541 480.693C501.541 481.181 501.713 481.581 502.058 481.894C502.41 482.2 502.875 482.353 503.455 482.353C504.249 482.353 504.903 482.076 505.418 481.523C505.939 480.963 506.199 480.256 506.199 479.404V478.407ZM510.213 483.105V481.386C511.085 482.03 512.045 482.353 513.094 482.353C514.5 482.353 515.203 481.884 515.203 480.946C515.203 480.68 515.141 480.455 515.017 480.273C514.9 480.084 514.737 479.918 514.529 479.775C514.327 479.631 514.086 479.504 513.806 479.394C513.533 479.277 513.237 479.156 512.918 479.032C512.475 478.857 512.084 478.681 511.746 478.505C511.414 478.323 511.134 478.121 510.906 477.9C510.685 477.672 510.515 477.415 510.398 477.128C510.288 476.842 510.232 476.506 510.232 476.122C510.232 475.654 510.34 475.24 510.554 474.882C510.769 474.517 511.056 474.215 511.414 473.974C511.772 473.726 512.179 473.541 512.635 473.417C513.097 473.293 513.572 473.232 514.06 473.232C514.926 473.232 515.701 473.381 516.385 473.681V475.302C515.649 474.82 514.803 474.579 513.845 474.579C513.546 474.579 513.276 474.615 513.035 474.687C512.794 474.752 512.586 474.846 512.41 474.97C512.241 475.094 512.107 475.243 512.01 475.419C511.918 475.588 511.873 475.777 511.873 475.986C511.873 476.246 511.918 476.464 512.01 476.64C512.107 476.816 512.247 476.972 512.429 477.109C512.612 477.245 512.833 477.369 513.094 477.48C513.354 477.59 513.65 477.711 513.982 477.841C514.425 478.01 514.822 478.186 515.174 478.368C515.525 478.544 515.825 478.746 516.072 478.974C516.319 479.195 516.508 479.452 516.638 479.745C516.775 480.038 516.844 480.387 516.844 480.79C516.844 481.285 516.733 481.715 516.511 482.079C516.297 482.444 516.007 482.747 515.642 482.987C515.278 483.228 514.858 483.407 514.383 483.525C513.907 483.642 513.409 483.7 512.888 483.7C511.86 483.7 510.968 483.502 510.213 483.105ZM526.131 483.007C525.362 483.469 524.451 483.7 523.396 483.7C521.97 483.7 520.818 483.238 519.939 482.314C519.067 481.383 518.631 480.178 518.631 478.7C518.631 477.053 519.103 475.732 520.047 474.736C520.991 473.733 522.25 473.232 523.826 473.232C524.705 473.232 525.48 473.394 526.15 473.72V475.361C525.408 474.84 524.614 474.579 523.767 474.579C522.745 474.579 521.905 474.947 521.248 475.683C520.597 476.412 520.271 477.372 520.271 478.564C520.271 479.736 520.577 480.66 521.189 481.337C521.808 482.014 522.635 482.353 523.67 482.353C524.542 482.353 525.362 482.063 526.131 481.484V483.007ZM533.767 475.087C533.487 474.872 533.084 474.765 532.556 474.765C531.873 474.765 531.3 475.087 530.838 475.732C530.382 476.376 530.154 477.255 530.154 478.368V483.466H528.553V473.466H530.154V475.527H530.193C530.421 474.823 530.769 474.277 531.238 473.886C531.707 473.489 532.231 473.29 532.81 473.29C533.227 473.29 533.546 473.336 533.767 473.427V475.087ZM536.326 470.927C536.039 470.927 535.795 470.829 535.594 470.634C535.392 470.439 535.291 470.191 535.291 469.892C535.291 469.592 535.392 469.345 535.594 469.15C535.795 468.948 536.039 468.847 536.326 468.847C536.619 468.847 536.866 468.948 537.068 469.15C537.276 469.345 537.381 469.592 537.381 469.892C537.381 470.178 537.276 470.422 537.068 470.624C536.866 470.826 536.619 470.927 536.326 470.927ZM537.107 483.466H535.506V473.466H537.107V483.466ZM541.99 482.021H541.951V488.066H540.349V473.466H541.951V475.224H541.99C542.778 473.896 543.93 473.232 545.447 473.232C546.736 473.232 547.742 473.681 548.465 474.579C549.187 475.471 549.549 476.669 549.549 478.173C549.549 479.846 549.142 481.187 548.328 482.196C547.514 483.199 546.401 483.7 544.988 483.7C543.692 483.7 542.693 483.14 541.99 482.021ZM541.951 477.987V479.384C541.951 480.211 542.218 480.914 542.752 481.493C543.292 482.066 543.976 482.353 544.803 482.353C545.773 482.353 546.531 481.982 547.078 481.239C547.631 480.497 547.908 479.465 547.908 478.144C547.908 477.03 547.651 476.158 547.136 475.527C546.622 474.895 545.926 474.579 545.047 474.579C544.116 474.579 543.367 474.905 542.801 475.556C542.234 476.2 541.951 477.011 541.951 477.987ZM556.746 483.368C556.368 483.577 555.87 483.681 555.252 483.681C553.5 483.681 552.625 482.704 552.625 480.751V474.833H550.906V473.466H552.625V471.025L554.226 470.507V473.466H556.746V474.833H554.226V480.468C554.226 481.139 554.34 481.617 554.568 481.904C554.796 482.19 555.174 482.333 555.701 482.333C556.105 482.333 556.453 482.223 556.746 482.001V483.368Z" fill="black"/>
<path d="M1108.31 661.084C1108.31 686.554 1094.21 709.656 1071.32 726.408C1048.43 743.16 1016.79 753.536 981.818 753.536C946.845 753.536 915.203 743.16 892.316 726.408C869.429 709.656 855.325 686.554 855.325 661.084C855.325 635.614 869.429 612.513 892.316 595.761C915.203 579.009 946.845 568.632 981.818 568.632C1016.79 568.632 1048.43 579.009 1071.32 595.761C1094.21 612.513 1108.31 635.614 1108.31 661.084Z" fill="white" stroke="black"/>
<path d="M947.817 656.851H943.774V669.37H942.133V656.851H938.1V655.366H947.817V656.851ZM956.655 659.37L952.055 670.972C951.235 673.042 950.083 674.077 948.598 674.077C948.182 674.077 947.833 674.035 947.553 673.95V672.515C947.898 672.632 948.214 672.69 948.501 672.69C949.308 672.69 949.913 672.209 950.317 671.245L951.118 669.351L947.212 659.37H948.989L951.694 667.065C951.727 667.163 951.795 667.417 951.899 667.827H951.958C951.99 667.671 952.055 667.424 952.153 667.085L954.995 659.37H956.655ZM960.024 667.925H959.985V673.97H958.383V659.37H959.985V661.128H960.024C960.812 659.8 961.964 659.136 963.481 659.136C964.77 659.136 965.776 659.585 966.499 660.483C967.221 661.375 967.583 662.573 967.583 664.077C967.583 665.75 967.176 667.092 966.362 668.101C965.548 669.103 964.435 669.605 963.022 669.605C961.727 669.605 960.727 669.045 960.024 667.925ZM959.985 663.892V665.288C959.985 666.115 960.252 666.818 960.786 667.398C961.326 667.97 962.01 668.257 962.837 668.257C963.807 668.257 964.565 667.886 965.112 667.144C965.665 666.401 965.942 665.37 965.942 664.048C965.942 662.935 965.685 662.062 965.171 661.431C964.656 660.799 963.96 660.483 963.081 660.483C962.15 660.483 961.401 660.809 960.835 661.46C960.268 662.105 959.985 662.915 959.985 663.892ZM978.178 664.771H971.118C971.144 665.884 971.443 666.743 972.016 667.349C972.589 667.954 973.377 668.257 974.38 668.257C975.506 668.257 976.541 667.886 977.485 667.144V668.648C976.606 669.286 975.444 669.605 973.999 669.605C972.586 669.605 971.476 669.152 970.669 668.247C969.861 667.336 969.458 666.056 969.458 664.409C969.458 662.853 969.897 661.587 970.776 660.61C971.661 659.627 972.758 659.136 974.067 659.136C975.376 659.136 976.388 659.559 977.104 660.405C977.82 661.252 978.178 662.427 978.178 663.931V664.771ZM976.538 663.413C976.531 662.489 976.307 661.769 975.864 661.255C975.428 660.741 974.819 660.483 974.038 660.483C973.283 660.483 972.641 660.754 972.114 661.294C971.587 661.834 971.261 662.541 971.137 663.413H976.538ZM980.005 669.009V667.29C980.877 667.935 981.837 668.257 982.885 668.257C984.292 668.257 984.995 667.788 984.995 666.851C984.995 666.584 984.933 666.359 984.809 666.177C984.692 665.988 984.529 665.822 984.321 665.679C984.119 665.536 983.878 665.409 983.598 665.298C983.325 665.181 983.029 665.06 982.71 664.937C982.267 664.761 981.876 664.585 981.538 664.409C981.206 664.227 980.926 664.025 980.698 663.804C980.477 663.576 980.307 663.319 980.19 663.032C980.079 662.746 980.024 662.411 980.024 662.026C980.024 661.558 980.131 661.144 980.346 660.786C980.561 660.422 980.848 660.119 981.206 659.878C981.564 659.631 981.971 659.445 982.426 659.321C982.889 659.198 983.364 659.136 983.852 659.136C984.718 659.136 985.493 659.286 986.176 659.585V661.206C985.441 660.724 984.594 660.483 983.637 660.483C983.338 660.483 983.068 660.519 982.827 660.591C982.586 660.656 982.378 660.75 982.202 660.874C982.033 660.998 981.899 661.148 981.801 661.323C981.71 661.493 981.665 661.681 981.665 661.89C981.665 662.15 981.71 662.368 981.801 662.544C981.899 662.72 982.039 662.876 982.221 663.013C982.404 663.149 982.625 663.273 982.885 663.384C983.146 663.495 983.442 663.615 983.774 663.745C984.217 663.914 984.614 664.09 984.965 664.273C985.317 664.448 985.617 664.65 985.864 664.878C986.111 665.099 986.3 665.357 986.43 665.649C986.567 665.942 986.635 666.291 986.635 666.694C986.635 667.189 986.525 667.619 986.303 667.983C986.089 668.348 985.799 668.651 985.434 668.892C985.07 669.133 984.65 669.312 984.174 669.429C983.699 669.546 983.201 669.605 982.68 669.605C981.652 669.605 980.76 669.406 980.005 669.009ZM995.923 668.911C995.154 669.373 994.243 669.605 993.188 669.605C991.762 669.605 990.61 669.142 989.731 668.218C988.859 667.287 988.423 666.082 988.423 664.605C988.423 662.957 988.895 661.636 989.839 660.64C990.783 659.637 992.042 659.136 993.618 659.136C994.497 659.136 995.271 659.299 995.942 659.624V661.265C995.2 660.744 994.406 660.483 993.559 660.483C992.537 660.483 991.697 660.851 991.04 661.587C990.389 662.316 990.063 663.276 990.063 664.468C990.063 665.64 990.369 666.564 990.981 667.241C991.6 667.918 992.426 668.257 993.462 668.257C994.334 668.257 995.154 667.967 995.923 667.388V668.911ZM1003.56 660.991C1003.28 660.776 1002.88 660.669 1002.35 660.669C1001.66 660.669 1001.09 660.991 1000.63 661.636C1000.17 662.28 999.946 663.159 999.946 664.273V669.37H998.344V659.37H999.946V661.431H999.985C1000.21 660.728 1000.56 660.181 1001.03 659.79C1001.5 659.393 1002.02 659.194 1002.6 659.194C1003.02 659.194 1003.34 659.24 1003.56 659.331V660.991ZM1006.12 656.831C1005.83 656.831 1005.59 656.733 1005.39 656.538C1005.18 656.343 1005.08 656.095 1005.08 655.796C1005.08 655.496 1005.18 655.249 1005.39 655.054C1005.59 654.852 1005.83 654.751 1006.12 654.751C1006.41 654.751 1006.66 654.852 1006.86 655.054C1007.07 655.249 1007.17 655.496 1007.17 655.796C1007.17 656.082 1007.07 656.327 1006.86 656.528C1006.66 656.73 1006.41 656.831 1006.12 656.831ZM1006.9 669.37H1005.3V659.37H1006.9V669.37ZM1011.78 667.925H1011.74V673.97H1010.14V659.37H1011.74V661.128H1011.78C1012.57 659.8 1013.72 659.136 1015.24 659.136C1016.53 659.136 1017.53 659.585 1018.26 660.483C1018.98 661.375 1019.34 662.573 1019.34 664.077C1019.34 665.75 1018.93 667.092 1018.12 668.101C1017.31 669.103 1016.19 669.605 1014.78 669.605C1013.48 669.605 1012.49 669.045 1011.78 667.925ZM1011.74 663.892V665.288C1011.74 666.115 1012.01 666.818 1012.54 667.398C1013.08 667.97 1013.77 668.257 1014.59 668.257C1015.56 668.257 1016.32 667.886 1016.87 667.144C1017.42 666.401 1017.7 665.37 1017.7 664.048C1017.7 662.935 1017.44 662.062 1016.93 661.431C1016.41 660.799 1015.72 660.483 1014.84 660.483C1013.91 660.483 1013.16 660.809 1012.59 661.46C1012.03 662.105 1011.74 662.915 1011.74 663.892ZM1026.54 669.273C1026.16 669.481 1025.66 669.585 1025.04 669.585C1023.29 669.585 1022.42 668.608 1022.42 666.655V660.737H1020.7V659.37H1022.42V656.929L1024.02 656.411V659.37H1026.54V660.737H1024.02V666.372C1024.02 667.043 1024.13 667.521 1024.36 667.808C1024.59 668.094 1024.97 668.237 1025.49 668.237C1025.9 668.237 1026.24 668.127 1026.54 667.905V669.273Z" fill="black"/>
<path d="M1439.5 931.306C1439.5 956.776 1425.4 979.877 1402.51 996.629C1379.62 1013.38 1347.98 1023.76 1313.01 1023.76C1278.03 1023.76 1246.39 1013.38 1223.5 996.629C1200.62 979.877 1186.51 956.776 1186.51 931.306C1186.51 905.836 1200.62 882.734 1223.5 865.982C1246.39 849.23 1278.03 838.854 1313.01 838.854C1347.98 838.854 1379.62 849.23 1402.51 865.982C1425.4 882.734 1439.5 905.836 1439.5 931.306Z" fill="white" stroke="black"/>
<path d="M1292.58 939.591H1290.63L1288.28 935.666C1288.07 935.301 1287.86 934.992 1287.66 934.738C1287.46 934.478 1287.25 934.266 1287.03 934.103C1286.82 933.94 1286.6 933.823 1286.35 933.752C1286.11 933.674 1285.84 933.634 1285.53 933.634H1284.18V939.591H1282.54V925.588H1286.72C1287.33 925.588 1287.9 925.666 1288.41 925.822C1288.93 925.972 1289.38 926.203 1289.76 926.515C1290.14 926.828 1290.44 927.218 1290.66 927.687C1290.87 928.149 1290.98 928.693 1290.98 929.318C1290.98 929.806 1290.9 930.256 1290.75 930.666C1290.61 931.069 1290.4 931.431 1290.13 931.75C1289.86 932.069 1289.54 932.342 1289.15 932.57C1288.77 932.791 1288.35 932.964 1287.87 933.088V933.127C1288.11 933.231 1288.31 933.351 1288.48 933.488C1288.65 933.618 1288.82 933.774 1288.98 933.957C1289.13 934.139 1289.29 934.347 1289.44 934.582C1289.59 934.81 1289.76 935.077 1289.95 935.383L1292.58 939.591ZM1284.18 927.072V932.15H1286.41C1286.82 932.15 1287.2 932.088 1287.54 931.965C1287.89 931.841 1288.2 931.665 1288.45 931.437C1288.7 931.203 1288.9 930.92 1289.04 930.588C1289.19 930.249 1289.26 929.871 1289.26 929.455C1289.26 928.706 1289.02 928.123 1288.53 927.707C1288.05 927.284 1287.35 927.072 1286.43 927.072H1284.18ZM1301.75 934.992H1294.69C1294.72 936.105 1295.01 936.965 1295.59 937.57C1296.16 938.175 1296.95 938.478 1297.95 938.478C1299.08 938.478 1300.11 938.107 1301.06 937.365V938.869C1300.18 939.507 1299.02 939.826 1297.57 939.826C1296.16 939.826 1295.05 939.373 1294.24 938.468C1293.43 937.557 1293.03 936.278 1293.03 934.631C1293.03 933.075 1293.47 931.808 1294.35 930.832C1295.23 929.849 1296.33 929.357 1297.64 929.357C1298.95 929.357 1299.96 929.78 1300.68 930.627C1301.39 931.473 1301.75 932.648 1301.75 934.152V934.992ZM1300.11 933.634C1300.1 932.71 1299.88 931.991 1299.44 931.476C1299 930.962 1298.39 930.705 1297.61 930.705C1296.85 930.705 1296.21 930.975 1295.69 931.515C1295.16 932.056 1294.83 932.762 1294.71 933.634H1300.11ZM1311.34 939.591H1309.74V938.029H1309.7C1309 939.227 1307.98 939.826 1306.62 939.826C1305.63 939.826 1304.85 939.562 1304.28 939.035C1303.72 938.508 1303.44 937.808 1303.44 936.935C1303.44 935.067 1304.54 933.98 1306.74 933.674L1309.74 933.254C1309.74 931.554 1309.05 930.705 1307.68 930.705C1306.47 930.705 1305.39 931.115 1304.42 931.935V930.295C1305.4 929.67 1306.53 929.357 1307.81 929.357C1310.16 929.357 1311.34 930.601 1311.34 933.088V939.591ZM1309.74 934.533L1307.33 934.865C1306.58 934.969 1306.02 935.155 1305.65 935.422C1305.27 935.682 1305.08 936.147 1305.08 936.818C1305.08 937.306 1305.25 937.707 1305.6 938.019C1305.95 938.325 1306.41 938.478 1306.99 938.478C1307.79 938.478 1308.44 938.202 1308.96 937.648C1309.48 937.088 1309.74 936.382 1309.74 935.529V934.533ZM1321.17 939.133C1320.41 939.595 1319.49 939.826 1318.44 939.826C1317.01 939.826 1315.86 939.364 1314.98 938.439C1314.11 937.508 1313.67 936.304 1313.67 934.826C1313.67 933.179 1314.15 931.857 1315.09 930.861C1316.03 929.858 1317.29 929.357 1318.87 929.357C1319.75 929.357 1320.52 929.52 1321.19 929.845V931.486C1320.45 930.965 1319.66 930.705 1318.81 930.705C1317.79 930.705 1316.95 931.073 1316.29 931.808C1315.64 932.537 1315.31 933.498 1315.31 934.689C1315.31 935.861 1315.62 936.786 1316.23 937.463C1316.85 938.14 1317.68 938.478 1318.71 938.478C1319.59 938.478 1320.41 938.188 1321.17 937.609V939.133ZM1328.23 939.494C1327.86 939.702 1327.36 939.806 1326.74 939.806C1324.99 939.806 1324.11 938.83 1324.11 936.877V930.959H1322.39V929.591H1324.11V927.15L1325.71 926.633V929.591H1328.23V930.959H1325.71V936.593C1325.71 937.264 1325.83 937.743 1326.06 938.029C1326.28 938.315 1326.66 938.459 1327.19 938.459C1327.59 938.459 1327.94 938.348 1328.23 938.127V939.494ZM1330.93 939.806C1330.63 939.806 1330.37 939.699 1330.16 939.484C1329.95 939.269 1329.85 939.012 1329.85 938.713C1329.85 938.413 1329.95 938.156 1330.16 937.941C1330.37 937.72 1330.63 937.609 1330.93 937.609C1331.24 937.609 1331.5 937.72 1331.71 937.941C1331.93 938.156 1332.03 938.413 1332.03 938.713C1332.03 939.012 1331.93 939.269 1331.71 939.484C1331.5 939.699 1331.24 939.806 1330.93 939.806ZM1336.31 939.172C1336.31 940.812 1335.98 942.075 1335.31 942.961C1334.66 943.853 1333.71 944.299 1332.48 944.299C1332.03 944.299 1331.58 944.194 1331.15 943.986V942.492C1331.64 942.785 1332.09 942.931 1332.52 942.931C1333.98 942.931 1334.71 941.766 1334.71 939.435V929.591H1336.31V939.172ZM1335.53 927.052C1335.24 927.052 1335 926.955 1334.8 926.759C1334.6 926.564 1334.49 926.317 1334.49 926.017C1334.49 925.718 1334.6 925.47 1334.8 925.275C1335 925.073 1335.24 924.972 1335.53 924.972C1335.82 924.972 1336.07 925.073 1336.27 925.275C1336.48 925.47 1336.58 925.718 1336.58 926.017C1336.58 926.304 1336.48 926.548 1336.27 926.75C1336.07 926.952 1335.82 927.052 1335.53 927.052ZM1338.95 939.23V937.511C1339.82 938.156 1340.78 938.478 1341.83 938.478C1343.23 938.478 1343.94 938.009 1343.94 937.072C1343.94 936.805 1343.88 936.58 1343.75 936.398C1343.63 936.209 1343.47 936.043 1343.26 935.9C1343.06 935.757 1342.82 935.63 1342.54 935.519C1342.27 935.402 1341.97 935.282 1341.65 935.158C1341.21 934.982 1340.82 934.806 1340.48 934.631C1340.15 934.448 1339.87 934.246 1339.64 934.025C1339.42 933.797 1339.25 933.54 1339.13 933.254C1339.02 932.967 1338.97 932.632 1338.97 932.248C1338.97 931.779 1339.07 931.366 1339.29 931.008C1339.5 930.643 1339.79 930.34 1340.15 930.099C1340.51 929.852 1340.91 929.666 1341.37 929.543C1341.83 929.419 1342.31 929.357 1342.79 929.357C1343.66 929.357 1344.44 929.507 1345.12 929.806V931.427C1344.38 930.946 1343.54 930.705 1342.58 930.705C1342.28 930.705 1342.01 930.741 1341.77 930.812C1341.53 930.877 1341.32 930.972 1341.14 931.095C1340.98 931.219 1340.84 931.369 1340.74 931.545C1340.65 931.714 1340.61 931.903 1340.61 932.111C1340.61 932.371 1340.65 932.59 1340.74 932.765C1340.84 932.941 1340.98 933.097 1341.16 933.234C1341.35 933.371 1341.57 933.494 1341.83 933.605C1342.09 933.716 1342.38 933.836 1342.72 933.966C1343.16 934.136 1343.56 934.312 1343.91 934.494C1344.26 934.67 1344.56 934.871 1344.81 935.099C1345.05 935.321 1345.24 935.578 1345.37 935.871C1345.51 936.164 1345.58 936.512 1345.58 936.916C1345.58 937.411 1345.47 937.84 1345.25 938.205C1345.03 938.569 1344.74 938.872 1344.38 939.113C1344.01 939.354 1343.59 939.533 1343.12 939.65C1342.64 939.767 1342.14 939.826 1341.62 939.826C1340.59 939.826 1339.7 939.627 1338.95 939.23Z" fill="black"/>
<path d="M951.668 1140.58C951.668 1166.05 937.564 1189.15 914.677 1205.9C891.79 1222.65 860.148 1233.03 825.175 1233.03C790.202 1233.03 758.559 1222.65 735.673 1205.9C712.785 1189.15 698.682 1166.05 698.682 1140.58C698.682 1115.1 712.785 1092 735.673 1075.25C758.559 1058.5 790.202 1048.12 825.175 1048.12C860.148 1048.12 891.79 1058.5 914.677 1075.25C937.564 1092 951.668 1115.1 951.668 1140.58Z" fill="white" stroke="black"/>
<path d="M809.328 1148.86H807.316L800.109 1137.7C799.927 1137.42 799.777 1137.13 799.66 1136.82H799.601C799.654 1137.12 799.68 1137.76 799.68 1138.74V1148.86H798.039V1134.86H800.168L807.18 1145.84C807.473 1146.3 807.661 1146.61 807.746 1146.78H807.785C807.72 1146.38 807.687 1145.69 807.687 1144.72V1134.86H809.328V1148.86ZM820.822 1144.26H813.762C813.788 1145.37 814.087 1146.23 814.66 1146.84C815.233 1147.44 816.021 1147.75 817.023 1147.75C818.15 1147.75 819.185 1147.38 820.129 1146.63V1148.14C819.25 1148.78 818.088 1149.1 816.642 1149.1C815.23 1149.1 814.12 1148.64 813.312 1147.74C812.505 1146.83 812.101 1145.55 812.101 1143.9C812.101 1142.34 812.541 1141.08 813.42 1140.1C814.305 1139.12 815.402 1138.63 816.711 1138.63C818.019 1138.63 819.032 1139.05 819.748 1139.9C820.464 1140.74 820.822 1141.92 820.822 1143.42V1144.26ZM819.182 1142.9C819.175 1141.98 818.95 1141.26 818.508 1140.75C818.072 1140.23 817.463 1139.97 816.682 1139.97C815.926 1139.97 815.285 1140.24 814.758 1140.78C814.23 1141.32 813.905 1142.03 813.781 1142.9H819.182ZM830.558 1138.86L827.199 1143.92L830.5 1148.86H828.635L826.672 1145.62C826.548 1145.42 826.402 1145.16 826.232 1144.86H826.193C826.161 1144.92 826.008 1145.17 825.734 1145.62L823.732 1148.86H821.887L825.295 1143.96L822.033 1138.86H823.898L825.832 1142.28C825.975 1142.53 826.115 1142.79 826.252 1143.06H826.291L828.791 1138.86H830.558ZM837.072 1148.76C836.695 1148.97 836.197 1149.08 835.578 1149.08C833.827 1149.08 832.951 1148.1 832.951 1146.15V1140.23H831.232V1138.86H832.951V1136.42L834.553 1135.9V1138.86H837.072V1140.23H834.553V1145.86C834.553 1146.53 834.667 1147.01 834.894 1147.3C835.122 1147.58 835.5 1147.73 836.027 1147.73C836.431 1147.73 836.779 1147.62 837.072 1147.4V1148.76ZM839.767 1149.08C839.468 1149.08 839.211 1148.97 838.996 1148.75C838.788 1148.54 838.683 1148.28 838.683 1147.98C838.683 1147.68 838.788 1147.43 838.996 1147.21C839.211 1146.99 839.468 1146.88 839.767 1146.88C840.073 1146.88 840.334 1146.99 840.549 1147.21C840.764 1147.43 840.871 1147.68 840.871 1147.98C840.871 1148.28 840.764 1148.54 840.549 1148.75C840.334 1148.97 840.073 1149.08 839.767 1149.08ZM845.148 1148.44C845.148 1150.08 844.816 1151.34 844.152 1152.23C843.495 1153.12 842.551 1153.57 841.32 1153.57C840.864 1153.57 840.422 1153.46 839.992 1153.26V1151.76C840.474 1152.05 840.93 1152.2 841.359 1152.2C842.818 1152.2 843.547 1151.04 843.547 1148.7V1138.86H845.148V1148.44ZM844.367 1136.32C844.081 1136.32 843.836 1136.22 843.635 1136.03C843.433 1135.83 843.332 1135.59 843.332 1135.29C843.332 1134.99 843.433 1134.74 843.635 1134.54C843.836 1134.34 844.081 1134.24 844.367 1134.24C844.66 1134.24 844.907 1134.34 845.109 1134.54C845.318 1134.74 845.422 1134.99 845.422 1135.29C845.422 1135.57 845.318 1135.82 845.109 1136.02C844.907 1136.22 844.66 1136.32 844.367 1136.32ZM847.785 1148.5V1146.78C848.657 1147.43 849.618 1147.75 850.666 1147.75C852.072 1147.75 852.775 1147.28 852.775 1146.34C852.775 1146.07 852.713 1145.85 852.59 1145.67C852.473 1145.48 852.31 1145.31 852.101 1145.17C851.9 1145.03 851.659 1144.9 851.379 1144.79C851.105 1144.67 850.809 1144.55 850.49 1144.43C850.047 1144.25 849.657 1144.08 849.318 1143.9C848.986 1143.72 848.706 1143.52 848.478 1143.29C848.257 1143.07 848.088 1142.81 847.971 1142.52C847.86 1142.24 847.805 1141.9 847.805 1141.52C847.805 1141.05 847.912 1140.63 848.127 1140.28C848.342 1139.91 848.628 1139.61 848.986 1139.37C849.344 1139.12 849.751 1138.94 850.207 1138.81C850.669 1138.69 851.144 1138.63 851.633 1138.63C852.499 1138.63 853.273 1138.78 853.957 1139.08V1140.7C853.221 1140.21 852.375 1139.97 851.418 1139.97C851.118 1139.97 850.848 1140.01 850.607 1140.08C850.366 1140.15 850.158 1140.24 849.982 1140.36C849.813 1140.49 849.68 1140.64 849.582 1140.81C849.491 1140.98 849.445 1141.17 849.445 1141.38C849.445 1141.64 849.491 1141.86 849.582 1142.03C849.68 1142.21 849.82 1142.37 850.002 1142.5C850.184 1142.64 850.405 1142.76 850.666 1142.87C850.926 1142.99 851.223 1143.11 851.555 1143.24C851.997 1143.41 852.394 1143.58 852.746 1143.76C853.098 1143.94 853.397 1144.14 853.644 1144.37C853.892 1144.59 854.081 1144.85 854.211 1145.14C854.348 1145.43 854.416 1145.78 854.416 1146.18C854.416 1146.68 854.305 1147.11 854.084 1147.47C853.869 1147.84 853.579 1148.14 853.215 1148.38C852.85 1148.62 852.43 1148.8 851.955 1148.92C851.48 1149.04 850.982 1149.1 850.461 1149.1C849.432 1149.1 848.54 1148.9 847.785 1148.5Z" fill="black"/>
<path d="M253.486 1219.81C253.486 1245.28 239.382 1268.38 216.495 1285.14C193.608 1301.89 161.966 1312.26 126.993 1312.26C92.0198 1312.26 60.3776 1301.89 37.4907 1285.14C14.6035 1268.38 0.5 1245.28 0.5 1219.81C0.5 1194.34 14.6035 1171.24 37.4907 1154.49C60.3776 1137.74 92.0198 1127.36 126.993 1127.36C161.966 1127.36 193.608 1137.74 216.495 1154.49C239.382 1171.24 253.486 1194.34 253.486 1219.81Z" fill="white" stroke="black"/>
<path d="M107.377 1228.1H105.365L98.1579 1216.94C97.9756 1216.66 97.8259 1216.36 97.7087 1216.06H97.6501C97.7022 1216.36 97.7282 1217 97.7282 1217.98V1228.1H96.0876V1214.09H98.2165L105.228 1225.08C105.521 1225.54 105.71 1225.85 105.795 1226.02H105.834C105.769 1225.61 105.736 1224.93 105.736 1223.96V1214.09H107.377V1228.1ZM115.013 1228.33C113.536 1228.33 112.354 1227.87 111.468 1226.94C110.59 1226 110.15 1224.76 110.15 1223.22C110.15 1221.54 110.609 1220.22 111.527 1219.28C112.445 1218.34 113.685 1217.86 115.248 1217.86C116.739 1217.86 117.901 1218.32 118.734 1219.24C119.574 1220.16 119.994 1221.43 119.994 1223.06C119.994 1224.65 119.541 1225.93 118.636 1226.9C117.738 1227.85 116.53 1228.33 115.013 1228.33ZM115.131 1219.21C114.102 1219.21 113.288 1219.56 112.689 1220.27C112.09 1220.96 111.791 1221.93 111.791 1223.16C111.791 1224.34 112.093 1225.28 112.699 1225.96C113.304 1226.64 114.115 1226.99 115.131 1226.99C116.166 1226.99 116.96 1226.65 117.513 1225.98C118.073 1225.31 118.353 1224.36 118.353 1223.12C118.353 1221.87 118.073 1220.9 117.513 1220.23C116.96 1219.55 116.166 1219.21 115.131 1219.21ZM131.088 1228.1H129.486V1226.4H129.447C128.705 1227.69 127.559 1228.33 126.009 1228.33C124.753 1228.33 123.747 1227.89 122.992 1227C122.243 1226.1 121.869 1224.88 121.869 1223.33C121.869 1221.68 122.286 1220.35 123.119 1219.36C123.952 1218.36 125.062 1217.86 126.449 1217.86C127.823 1217.86 128.822 1218.4 129.447 1219.49H129.486V1213.29H131.088V1228.1ZM129.486 1223.58V1222.1C129.486 1221.3 129.219 1220.61 128.685 1220.05C128.151 1219.49 127.474 1219.21 126.654 1219.21C125.677 1219.21 124.909 1219.57 124.349 1220.29C123.789 1221 123.509 1221.99 123.509 1223.25C123.509 1224.41 123.776 1225.32 124.31 1225.99C124.851 1226.65 125.573 1226.99 126.478 1226.99C127.37 1226.99 128.093 1226.66 128.646 1226.02C129.206 1225.37 129.486 1224.56 129.486 1223.58ZM142.367 1223.5H135.306C135.332 1224.61 135.632 1225.47 136.205 1226.08C136.778 1226.68 137.565 1226.99 138.568 1226.99C139.694 1226.99 140.73 1226.61 141.674 1225.87V1227.38C140.795 1228.01 139.633 1228.33 138.187 1228.33C136.774 1228.33 135.664 1227.88 134.857 1226.98C134.05 1226.06 133.646 1224.78 133.646 1223.14C133.646 1221.58 134.086 1220.32 134.965 1219.34C135.85 1218.36 136.947 1217.86 138.256 1217.86C139.564 1217.86 140.577 1218.29 141.293 1219.13C142.009 1219.98 142.367 1221.16 142.367 1222.66V1223.5ZM140.726 1222.14C140.72 1221.22 140.495 1220.5 140.052 1219.98C139.616 1219.47 139.008 1219.21 138.226 1219.21C137.471 1219.21 136.83 1219.48 136.302 1220.02C135.775 1220.56 135.45 1221.27 135.326 1222.14H140.726ZM145.355 1228.31C145.056 1228.31 144.799 1228.21 144.584 1227.99C144.375 1227.78 144.271 1227.52 144.271 1227.22C144.271 1226.92 144.375 1226.66 144.584 1226.45C144.799 1226.23 145.056 1226.12 145.355 1226.12C145.661 1226.12 145.922 1226.23 146.136 1226.45C146.351 1226.66 146.459 1226.92 146.459 1227.22C146.459 1227.52 146.351 1227.78 146.136 1227.99C145.922 1228.21 145.661 1228.31 145.355 1228.31ZM150.736 1227.68C150.736 1229.32 150.404 1230.58 149.74 1231.47C149.082 1232.36 148.138 1232.81 146.908 1232.81C146.452 1232.81 146.009 1232.7 145.58 1232.49V1231C146.062 1231.29 146.517 1231.44 146.947 1231.44C148.405 1231.44 149.134 1230.27 149.134 1227.94V1218.1H150.736V1227.68ZM149.955 1215.56C149.668 1215.56 149.424 1215.46 149.222 1215.27C149.021 1215.07 148.92 1214.82 148.92 1214.52C148.92 1214.22 149.021 1213.98 149.222 1213.78C149.424 1213.58 149.668 1213.48 149.955 1213.48C150.248 1213.48 150.495 1213.58 150.697 1213.78C150.905 1213.98 151.009 1214.22 151.009 1214.52C151.009 1214.81 150.905 1215.05 150.697 1215.26C150.495 1215.46 150.248 1215.56 149.955 1215.56ZM153.373 1227.74V1226.02C154.245 1226.66 155.205 1226.99 156.254 1226.99C157.66 1226.99 158.363 1226.52 158.363 1225.58C158.363 1225.31 158.301 1225.09 158.177 1224.91C158.06 1224.72 157.898 1224.55 157.689 1224.41C157.487 1224.26 157.246 1224.14 156.967 1224.03C156.693 1223.91 156.397 1223.79 156.078 1223.66C155.635 1223.49 155.245 1223.31 154.906 1223.14C154.574 1222.96 154.294 1222.75 154.066 1222.53C153.845 1222.3 153.676 1222.05 153.558 1221.76C153.448 1221.47 153.392 1221.14 153.392 1220.75C153.392 1220.29 153.5 1219.87 153.715 1219.51C153.929 1219.15 154.216 1218.85 154.574 1218.61C154.932 1218.36 155.339 1218.17 155.795 1218.05C156.257 1217.93 156.732 1217.86 157.22 1217.86C158.086 1217.86 158.861 1218.01 159.545 1218.31V1219.93C158.809 1219.45 157.963 1219.21 157.006 1219.21C156.706 1219.21 156.436 1219.25 156.195 1219.32C155.954 1219.38 155.746 1219.48 155.57 1219.6C155.401 1219.73 155.267 1219.88 155.17 1220.05C155.079 1220.22 155.033 1220.41 155.033 1220.62C155.033 1220.88 155.079 1221.1 155.17 1221.27C155.267 1221.45 155.407 1221.6 155.59 1221.74C155.772 1221.88 155.993 1222 156.254 1222.11C156.514 1222.22 156.81 1222.34 157.142 1222.47C157.585 1222.64 157.982 1222.82 158.334 1223C158.685 1223.18 158.985 1223.38 159.232 1223.61C159.48 1223.83 159.668 1224.08 159.799 1224.38C159.935 1224.67 160.004 1225.02 160.004 1225.42C160.004 1225.92 159.893 1226.35 159.672 1226.71C159.457 1227.08 159.167 1227.38 158.802 1227.62C158.438 1227.86 158.018 1228.04 157.543 1228.16C157.067 1228.27 156.569 1228.33 156.049 1228.33C155.02 1228.33 154.128 1228.13 153.373 1227.74Z" fill="black"/>
<path d="M797.262 1481.91C797.262 1507.38 783.159 1530.48 760.272 1547.23C737.385 1563.98 705.742 1574.36 670.769 1574.36C635.796 1574.36 604.154 1563.98 581.267 1547.23C558.38 1530.48 544.276 1507.38 544.276 1481.91C544.276 1456.44 558.38 1433.34 581.267 1416.58C604.154 1399.83 635.796 1389.46 670.769 1389.46C705.742 1389.46 737.385 1399.83 760.272 1416.58C783.159 1433.34 797.262 1456.44 797.262 1481.91Z" fill="white" stroke="black"/>
<path d="M647.852 1490.19H640.43V1476.19H647.54V1477.67H642.071V1482.33H647.129V1483.81H642.071V1488.71H647.852V1490.19ZM657.637 1480.19L654.278 1485.25L657.579 1490.19H655.713L653.751 1486.95C653.627 1486.75 653.48 1486.49 653.311 1486.19H653.272C653.239 1486.25 653.086 1486.5 652.813 1486.95L650.811 1490.19H648.965L652.374 1485.29L649.112 1480.19H650.977L652.911 1483.61C653.054 1483.86 653.194 1484.13 653.331 1484.39H653.37L655.87 1480.19H657.637ZM661.153 1488.75H661.114V1494.79H659.512V1480.19H661.114V1481.95H661.153C661.941 1480.62 663.093 1479.96 664.61 1479.96C665.899 1479.96 666.905 1480.41 667.627 1481.31C668.35 1482.2 668.711 1483.4 668.711 1484.9C668.711 1486.57 668.305 1487.91 667.491 1488.92C666.677 1489.93 665.564 1490.43 664.151 1490.43C662.855 1490.43 661.856 1489.87 661.153 1488.75ZM661.114 1484.71V1486.11C661.114 1486.94 661.381 1487.64 661.915 1488.22C662.455 1488.79 663.139 1489.08 663.965 1489.08C664.935 1489.08 665.694 1488.71 666.241 1487.97C666.794 1487.22 667.071 1486.19 667.071 1484.87C667.071 1483.76 666.814 1482.88 666.299 1482.25C665.785 1481.62 665.088 1481.31 664.21 1481.31C663.279 1481.31 662.53 1481.63 661.963 1482.28C661.397 1482.93 661.114 1483.74 661.114 1484.71ZM676.485 1481.81C676.205 1481.6 675.801 1481.49 675.274 1481.49C674.59 1481.49 674.017 1481.81 673.555 1482.46C673.099 1483.1 672.872 1483.98 672.872 1485.1V1490.19H671.27V1480.19H672.872V1482.25H672.911C673.139 1481.55 673.487 1481 673.956 1480.61C674.424 1480.22 674.948 1480.02 675.528 1480.02C675.945 1480.02 676.264 1480.06 676.485 1480.15V1481.81ZM686.26 1485.59H679.2C679.226 1486.71 679.525 1487.57 680.098 1488.17C680.671 1488.78 681.459 1489.08 682.461 1489.08C683.588 1489.08 684.623 1488.71 685.567 1487.97V1489.47C684.688 1490.11 683.526 1490.43 682.081 1490.43C680.668 1490.43 679.558 1489.97 678.751 1489.07C677.943 1488.16 677.54 1486.88 677.54 1485.23C677.54 1483.68 677.979 1482.41 678.858 1481.43C679.743 1480.45 680.84 1479.96 682.149 1479.96C683.458 1479.96 684.47 1480.38 685.186 1481.23C685.902 1482.07 686.26 1483.25 686.26 1484.75V1485.59ZM684.62 1484.24C684.613 1483.31 684.389 1482.59 683.946 1482.08C683.51 1481.56 682.901 1481.31 682.12 1481.31C681.364 1481.31 680.723 1481.58 680.196 1482.12C679.669 1482.66 679.343 1483.36 679.219 1484.24H684.62ZM688.086 1489.83V1488.11C688.959 1488.76 689.919 1489.08 690.967 1489.08C692.374 1489.08 693.077 1488.61 693.077 1487.67C693.077 1487.41 693.015 1487.18 692.891 1487C692.774 1486.81 692.611 1486.64 692.403 1486.5C692.201 1486.36 691.96 1486.23 691.68 1486.12C691.407 1486 691.111 1485.88 690.792 1485.76C690.349 1485.58 689.958 1485.41 689.62 1485.23C689.288 1485.05 689.008 1484.85 688.78 1484.63C688.558 1484.4 688.389 1484.14 688.272 1483.85C688.161 1483.57 688.106 1483.23 688.106 1482.85C688.106 1482.38 688.213 1481.97 688.428 1481.61C688.643 1481.24 688.93 1480.94 689.288 1480.7C689.646 1480.45 690.053 1480.27 690.508 1480.14C690.971 1480.02 691.446 1479.96 691.934 1479.96C692.8 1479.96 693.575 1480.11 694.258 1480.41V1482.03C693.523 1481.55 692.676 1481.31 691.719 1481.31C691.42 1481.31 691.15 1481.34 690.909 1481.41C690.668 1481.48 690.46 1481.57 690.284 1481.7C690.114 1481.82 689.981 1481.97 689.883 1482.15C689.792 1482.32 689.747 1482.5 689.747 1482.71C689.747 1482.97 689.792 1483.19 689.883 1483.37C689.981 1483.54 690.121 1483.7 690.303 1483.84C690.486 1483.97 690.707 1484.1 690.967 1484.21C691.228 1484.32 691.524 1484.44 691.856 1484.57C692.299 1484.74 692.696 1484.91 693.047 1485.1C693.399 1485.27 693.698 1485.47 693.946 1485.7C694.193 1485.92 694.382 1486.18 694.512 1486.47C694.649 1486.77 694.717 1487.11 694.717 1487.52C694.717 1488.01 694.607 1488.44 694.385 1488.81C694.17 1489.17 693.881 1489.47 693.516 1489.71C693.152 1489.96 692.732 1490.13 692.256 1490.25C691.781 1490.37 691.283 1490.43 690.762 1490.43C689.734 1490.43 688.842 1490.23 688.086 1489.83ZM696.583 1489.83V1488.11C697.455 1488.76 698.415 1489.08 699.463 1489.08C700.87 1489.08 701.573 1488.61 701.573 1487.67C701.573 1487.41 701.511 1487.18 701.387 1487C701.27 1486.81 701.107 1486.64 700.899 1486.5C700.697 1486.36 700.456 1486.23 700.176 1486.12C699.903 1486 699.607 1485.88 699.288 1485.76C698.845 1485.58 698.454 1485.41 698.116 1485.23C697.784 1485.05 697.504 1484.85 697.276 1484.63C697.055 1484.4 696.885 1484.14 696.768 1483.85C696.657 1483.57 696.602 1483.23 696.602 1482.85C696.602 1482.38 696.71 1481.97 696.924 1481.61C697.139 1481.24 697.426 1480.94 697.784 1480.7C698.142 1480.45 698.549 1480.27 699.004 1480.14C699.467 1480.02 699.942 1479.96 700.43 1479.96C701.296 1479.96 702.071 1480.11 702.754 1480.41V1482.03C702.019 1481.55 701.172 1481.31 700.215 1481.31C699.916 1481.31 699.646 1481.34 699.405 1481.41C699.164 1481.48 698.956 1481.57 698.78 1481.7C698.611 1481.82 698.477 1481.97 698.379 1482.15C698.288 1482.32 698.243 1482.5 698.243 1482.71C698.243 1482.97 698.288 1483.19 698.379 1483.37C698.477 1483.54 698.617 1483.7 698.799 1483.84C698.982 1483.97 699.203 1484.1 699.463 1484.21C699.724 1484.32 700.02 1484.44 700.352 1484.57C700.795 1484.74 701.192 1484.91 701.544 1485.1C701.895 1485.27 702.195 1485.47 702.442 1485.7C702.689 1485.92 702.878 1486.18 703.008 1486.47C703.145 1486.77 703.213 1487.11 703.213 1487.52C703.213 1488.01 703.103 1488.44 702.881 1488.81C702.667 1489.17 702.377 1489.47 702.012 1489.71C701.648 1489.96 701.228 1490.13 700.752 1490.25C700.277 1490.37 699.779 1490.43 699.258 1490.43C698.23 1490.43 697.338 1490.23 696.583 1489.83Z" fill="black"/>
<path d="M1318.66 1574.35C1318.66 1599.82 1304.56 1622.92 1281.67 1639.67C1258.78 1656.43 1227.14 1666.8 1192.17 1666.8C1157.19 1666.8 1125.55 1656.43 1102.67 1639.67C1079.78 1622.92 1065.67 1599.82 1065.67 1574.35C1065.67 1548.88 1079.78 1525.78 1102.67 1509.03C1125.55 1492.28 1157.19 1481.9 1192.17 1481.9C1227.14 1481.9 1258.78 1492.28 1281.67 1509.03C1304.56 1525.78 1318.66 1548.88 1318.66 1574.35Z" fill="white" stroke="black"/>
<path d="M1192.36 1581.68C1190.95 1582.47 1189.39 1582.87 1187.67 1582.87C1185.67 1582.87 1184.05 1582.23 1182.82 1580.94C1181.58 1579.65 1180.97 1577.94 1180.97 1575.82C1180.97 1573.65 1181.65 1571.88 1183.02 1570.49C1184.39 1569.1 1186.13 1568.4 1188.24 1568.4C1189.76 1568.4 1191.04 1568.65 1192.07 1569.14V1570.96C1190.94 1570.24 1189.6 1569.88 1188.05 1569.88C1186.48 1569.88 1185.19 1570.42 1184.19 1571.5C1183.19 1572.59 1182.69 1573.98 1182.69 1575.7C1182.69 1577.47 1183.15 1578.87 1184.08 1579.88C1185.02 1580.89 1186.28 1581.4 1187.87 1581.4C1188.97 1581.4 1189.91 1581.18 1190.72 1580.74V1576.82H1187.65V1575.33H1192.36V1581.68ZM1196.22 1570.1C1195.94 1570.1 1195.69 1570 1195.49 1569.81C1195.29 1569.61 1195.19 1569.36 1195.19 1569.06C1195.19 1568.76 1195.29 1568.52 1195.49 1568.32C1195.69 1568.12 1195.94 1568.02 1196.22 1568.02C1196.52 1568.02 1196.76 1568.12 1196.97 1568.32C1197.17 1568.52 1197.28 1568.76 1197.28 1569.06C1197.28 1569.35 1197.17 1569.59 1196.97 1569.8C1196.76 1570 1196.52 1570.1 1196.22 1570.1ZM1197 1582.64H1195.4V1572.64H1197V1582.64ZM1204.89 1582.54C1204.51 1582.75 1204.01 1582.85 1203.39 1582.85C1201.64 1582.85 1200.76 1581.88 1200.76 1579.92V1574H1199.05V1572.64H1200.76V1570.2L1202.37 1569.68V1572.64H1204.89V1574H1202.37V1579.64C1202.37 1580.31 1202.48 1580.79 1202.71 1581.07C1202.94 1581.36 1203.31 1581.5 1203.84 1581.5C1204.24 1581.5 1204.59 1581.39 1204.89 1581.17V1582.54Z" fill="black"/>
<path d="M1051.25 1858.79C1051.25 1884.26 1037.14 1907.37 1014.26 1924.12C991.371 1940.87 959.728 1951.25 924.755 1951.25C889.782 1951.25 858.14 1940.87 835.253 1924.12C812.366 1907.37 798.262 1884.26 798.262 1858.79C798.262 1833.32 812.366 1810.22 835.253 1793.47C858.14 1776.72 889.782 1766.34 924.755 1766.34C959.728 1766.34 991.371 1776.72 1014.26 1793.47C1037.14 1810.22 1051.25 1833.32 1051.25 1858.79Z" fill="white" stroke="black"/>
<path d="M895.979 1867.08V1853.08H899.846C904.781 1853.08 907.248 1855.35 907.248 1859.9C907.248 1862.06 906.561 1863.8 905.188 1865.12C903.821 1866.43 901.988 1867.08 899.69 1867.08H895.979ZM897.619 1854.56V1865.6H899.709C901.545 1865.6 902.974 1865.1 903.996 1864.12C905.018 1863.14 905.53 1861.75 905.53 1859.94C905.53 1856.35 903.622 1854.56 899.807 1854.56H897.619ZM913.967 1867.31C912.489 1867.31 911.307 1866.85 910.422 1865.92C909.543 1864.98 909.104 1863.74 909.104 1862.2C909.104 1860.52 909.563 1859.21 910.481 1858.26C911.399 1857.32 912.639 1856.85 914.201 1856.85C915.692 1856.85 916.854 1857.31 917.688 1858.22C918.528 1859.14 918.947 1860.41 918.947 1862.04C918.947 1863.64 918.495 1864.92 917.59 1865.88C916.692 1866.84 915.484 1867.31 913.967 1867.31ZM914.084 1858.19C913.056 1858.19 912.242 1858.55 911.643 1859.25C911.044 1859.95 910.744 1860.91 910.744 1862.14C910.744 1863.32 911.047 1864.26 911.653 1864.94C912.258 1865.63 913.069 1865.97 914.084 1865.97C915.119 1865.97 915.914 1865.63 916.467 1864.96C917.027 1864.29 917.307 1863.34 917.307 1862.1C917.307 1860.85 917.027 1859.89 916.467 1859.21C915.914 1858.53 915.119 1858.19 914.084 1858.19ZM928.322 1866.62C927.554 1867.08 926.643 1867.31 925.588 1867.31C924.162 1867.31 923.01 1866.85 922.131 1865.93C921.259 1865 920.822 1863.79 920.822 1862.31C920.822 1860.67 921.294 1859.35 922.238 1858.35C923.182 1857.35 924.442 1856.85 926.018 1856.85C926.897 1856.85 927.671 1857.01 928.342 1857.33V1858.98C927.6 1858.45 926.806 1858.19 925.959 1858.19C924.937 1858.19 924.097 1858.56 923.44 1859.3C922.789 1860.03 922.463 1860.99 922.463 1862.18C922.463 1863.35 922.769 1864.27 923.381 1864.95C924 1865.63 924.826 1865.97 925.862 1865.97C926.734 1865.97 927.554 1865.68 928.322 1865.1V1866.62ZM939.045 1867.08H936.799L932.385 1862.28H932.346V1867.08H930.744V1852.28H932.346V1861.66H932.385L936.584 1857.08H938.684L934.045 1861.9L939.045 1867.08ZM948.723 1862.48H941.662C941.688 1863.59 941.988 1864.45 942.561 1865.06C943.134 1865.66 943.921 1865.97 944.924 1865.97C946.05 1865.97 947.085 1865.6 948.03 1864.85V1866.36C947.151 1867 945.988 1867.31 944.543 1867.31C943.13 1867.31 942.02 1866.86 941.213 1865.96C940.406 1865.05 940.002 1863.77 940.002 1862.12C940.002 1860.56 940.442 1859.3 941.321 1858.32C942.206 1857.34 943.303 1856.85 944.612 1856.85C945.92 1856.85 946.932 1857.27 947.649 1858.12C948.365 1858.96 948.723 1860.14 948.723 1861.64V1862.48ZM947.082 1861.12C947.076 1860.2 946.851 1859.48 946.408 1858.97C945.972 1858.45 945.363 1858.19 944.582 1858.19C943.827 1858.19 943.186 1858.46 942.658 1859C942.131 1859.54 941.806 1860.25 941.682 1861.12H947.082ZM956.369 1858.7C956.089 1858.49 955.686 1858.38 955.158 1858.38C954.475 1858.38 953.902 1858.7 953.44 1859.35C952.984 1859.99 952.756 1860.87 952.756 1861.98V1867.08H951.155V1857.08H952.756V1859.14H952.795C953.023 1858.44 953.371 1857.89 953.84 1857.5C954.309 1857.1 954.833 1856.9 955.412 1856.9C955.829 1856.9 956.148 1856.95 956.369 1857.04V1858.7Z" fill="black"/>
</svg>
